<?xml version="1.0" encoding="UTF-8"?>
<svg width="200" height="200" viewBox="0 0 200 200" role="img" aria-label="Ollie the otter relaxing — no vulnerabilities found" style="display:inline-block"><defs><filter id="ollie-shadow" x="-20%" y="-20%" width="140%" height="140%"><feDropShadow dx="0" dy="2" stdDeviation="3" flood-color="#00000030"></feDropShadow></filter><linearGradient id="water-grad" x1="0" y1="0" x2="0" y2="1"><stop offset="0%" stop-color="#93c5fd" stop-opacity="0.6"></stop><stop offset="100%" stop-color="#3b82f6"></stop></linearGradient><linearGradient id="water-dark-grad" x1="0" y1="0" x2="0" y2="1"><stop offset="0%" stop-color="#3b82f6" stop-opacity="0.8"></stop><stop offset="100%" stop-color="#2563eb"></stop></linearGradient><linearGradient id="water-red-grad" x1="0" y1="0" x2="0" y2="1"><stop offset="0%" stop-color="#ef4444" stop-opacity="0.4"></stop><stop offset="50%" stop-color="#3b82f6" stop-opacity="0.7"></stop><stop offset="100%" stop-color="#2563eb"></stop></linearGradient><radialGradient id="body-grad" cx="0.4" cy="0.35" r="0.6"><stop offset="0%" stop-color="#c9561f"></stop><stop offset="100%" stop-color="#b34417"></stop></radialGradient></defs><g filter="url(#ollie-shadow)"><g transform="translate(100, 110) rotate(-5)"><ellipse cx="0" cy="0" rx="35" ry="18" fill="url(#body-grad)"></ellipse><ellipse cx="0" cy="2" rx="25" ry="12" fill="#f5f0e8"></ellipse><ellipse cx="38" cy="5" rx="12" ry="5" fill="#b34417"></ellipse></g><g transform="rotate(-20, 85, 87)"><ellipse cx="85" cy="87" rx="6" ry="4.5" fill="#b34417"></ellipse><ellipse cx="85" cy="88" rx="4" ry="3" fill="#f5f0e8"></ellipse></g><g transform="rotate(15, 112, 89)"><ellipse cx="112" cy="89" rx="6" ry="4.5" fill="#b34417"></ellipse><ellipse cx="112" cy="90" rx="4" ry="3" fill="#f5f0e8"></ellipse></g><g><ellipse cx="70" cy="105" rx="28" ry="24" fill="url(#body-grad)"></ellipse><ellipse cx="70" cy="111" rx="18" ry="14" fill="#f5f0e8"></ellipse></g><g><circle cx="48" cy="90" r="7" fill="#b34417"></circle><circle cx="48" cy="90" r="3.8500000000000005" fill="#d4845a"></circle></g><g><circle cx="90" cy="88" r="7" fill="#b34417"></circle><circle cx="90" cy="88" r="3.8500000000000005" fill="#d4845a"></circle></g><g><path d="M57,102 Q62,96 67,102" stroke="#1c1917" stroke-width="2.5" stroke-linecap="round" fill="none"></path><path d="M73,102 Q78,96 83,102" stroke="#1c1917" stroke-width="2.5" stroke-linecap="round" fill="none"></path></g><ellipse cx="70" cy="109" rx="3.5" ry="2.5" fill="#8c350f"></ellipse><path d="M64,114 Q70,120 76,114" stroke="#8c350f" stroke-width="1.8" stroke-linecap="round" fill="none"></path><g><circle cx="56" cy="111" r="4" fill="#d4845a" opacity="0.45"></circle><circle cx="84" cy="111" r="4" fill="#d4845a" opacity="0.45"></circle></g><g stroke="#d4845a" stroke-width="1" stroke-linecap="round" opacity="0.6"><line x1="52" y1="109" x2="62" y2="111"></line><line x1="53" y1="114" x2="62" y2="114"></line><line x1="88" y1="109" x2="78" y2="111"></line><line x1="87" y1="114" x2="78" y2="114"></line></g><g fill="#fbbf24"><path d="M130,70 L131.5,73.5 L135,75 L131.5,76.5 L130,80 L128.5,76.5 L125,75 L128.5,73.5 Z"></path></g><g fill="#fbbf24"><path d="M145,84 L146.5,85.5 L148,87 L146.5,88.5 L145,90 L143.5,88.5 L142,87 L143.5,85.5 Z"></path></g><g><path d="M0,125 Q25,121 50,125 T100,125 T150,125 T200,125 L200,200 L0,200 Z" fill="url(#water-grad)"></path><path d="M0,125 Q25,121 50,125 T100,125 T150,125 T200,125" stroke="#93c5fd" stroke-width="1.5" fill="none" opacity="0.6"></path></g></g></svg>